<svg width="26" height="24" viewBox="0 0 26 24" fill="none" xmlns="http://www.w3.org/2000/svg">
<path fill-rule="evenodd" clip-rule="evenodd" d="M1.5462 0.0915785C0.8407 -0.312183 0.252785 0.72606 0.928888 1.12982L4.28001 3.03327C5.13249 7.3016 6.01436 11.5411 6.86684 15.8094L5.25007 19.2991C5.0443 19.7028 5.33826 20.1643 5.7792 20.1643H22.77C23.5637 20.1643 23.5637 18.9818 22.77 18.9818H6.77866L7.95449 16.4439L22.1527 15.8671C22.4172 15.8671 22.6818 15.6941 22.7406 15.4345L25.592 6.03263C25.739 5.65771 25.445 5.22511 25.0335 5.22511H6.01436L5.45584 2.51415C5.42645 2.31226 5.27947 2.16806 5.13249 2.08154L1.5462 0.0915785ZM18.537 20.6546C17.5963 20.6546 16.832 21.4044 16.832 22.3273C16.832 23.2502 17.5963 24 18.537 24C19.4776 24 20.2419 23.2502 20.2419 22.3273C20.2419 21.4044 19.507 20.6546 18.537 20.6546ZM8.86576 20.6546C7.92509 20.6546 7.1608 21.4044 7.1608 22.3273C7.1608 23.2502 7.92509 24 8.86576 24C9.80642 24 10.5707 23.2502 10.5707 22.3273C10.5707 21.4044 9.80642 20.6546 8.86576 20.6546ZM8.01328 15.2326L6.22013 6.4364H24.181L21.6823 14.6847L8.01328 15.2326Z" fill="white"/>
</svg>
