<svg width="18" height="27" viewBox="0 0 18 27" fill="none" xmlns="http://www.w3.org/2000/svg">
<path d="M10.5315 5.43347L10.5313 5.43345C10.5311 5.43549 10.5306 5.43936 10.53 5.44499C10.5078 5.63459 10.2508 7.82955 11.6681 10.2078C11.9505 10.6812 11.8219 11.28 11.3695 11.569L11.3426 11.5268L11.3695 11.569C10.9066 11.8646 10.1302 12.0906 9.18273 12.2282V12.6532C9.47474 12.4487 9.82784 12.3236 10.2133 12.3236C11.039 12.3236 11.7334 12.8758 11.9453 13.6253C12.2497 13.39 12.6289 13.2445 13.0456 13.2445C13.928 13.2445 14.6568 13.8757 14.8099 14.7038C15.1088 14.4831 15.4757 14.3472 15.8778 14.3472C16.8707 14.3472 17.6795 15.144 17.6795 16.1255V20.6262C17.6809 20.6705 17.704 21.7423 17.3093 22.9187C16.9096 24.1101 16.0783 25.4164 14.3553 25.8619L14.3532 25.8626L14.3442 25.8653L14.3106 25.8751C14.2812 25.8835 14.2379 25.8954 14.182 25.9098C14.0702 25.9386 13.9077 25.9774 13.7047 26.0178L13.7046 26.0178C13.0059 26.1563 12.3438 26.2271 11.7099 26.2271C9.51544 26.2271 7.66225 25.3782 5.77249 23.5706L5.7718 23.5699L4.44195 22.2482C4.44184 22.2481 4.44173 22.248 4.44161 22.2479L4.44148 22.2477L10.5315 5.43347ZM10.5315 5.43347V5.42871C10.5315 4.29538 9.82442 3.32039 8.7973 2.80162C8.72455 1.77605 8.02217 0.95 7.14232 0.95C6.26225 0.95 5.55952 1.77704 5.4876 2.80362C4.46054 3.32623 3.75473 4.3122 3.75728 5.47882L3.75679 5.47882L3.75779 5.48578C3.76033 5.50361 4.07651 7.75862 2.61658 10.2078L2.61656 10.2078C2.33454 10.6817 2.46356 11.2801 2.91508 11.5694L2.91518 11.5695C3.45568 11.9141 4.41773 12.1696 5.57976 12.2922V17.6004L4.44132 16.375C3.69471 15.5704 2.42281 15.5133 1.6049 16.2485C1.20797 16.6051 0.976023 17.0952 0.952053 17.6277C0.92808 18.1592 1.11473 18.6664 1.47681 19.0562L4.43108 22.2369C4.43281 22.2388 4.43458 22.2404 4.43628 22.2418L10.5315 5.43347ZM14.1448 25.1204L14.1448 25.1204C15.5732 24.7518 16.2649 23.6472 16.5998 22.6215C16.7672 22.1089 16.8448 21.6179 16.8803 21.2525C16.8981 21.0698 16.9053 20.9188 16.9081 20.8124C16.9094 20.7592 16.9097 20.7172 16.9096 20.688L16.9092 20.6541L16.909 20.6447L16.909 20.6421L16.9089 20.6411L16.9088 20.639H16.9089V16.1255C16.9089 15.5711 16.4475 15.1179 15.8779 15.1179C15.3087 15.1179 14.8473 15.571 14.8473 16.1255V18.4193C14.8473 18.632 14.6747 18.8047 14.462 18.8047C14.2493 18.8047 14.0766 18.632 14.0766 18.4193V16.1255V15.0228C14.0766 14.4683 13.6152 14.0151 13.0456 14.0151C12.4765 14.0151 12.0151 14.4683 12.0151 15.0228V17.8456C12.0151 18.0584 11.8424 18.231 11.6297 18.231C11.417 18.231 11.2443 18.0584 11.2443 17.8456V15.0228V14.1019C11.2443 13.5475 10.783 13.0943 10.2134 13.0943C9.64419 13.0943 9.18279 13.5475 9.18279 14.1019V16.5993C9.18279 16.812 9.01015 16.9846 8.79744 16.9846C8.58472 16.9846 8.41208 16.812 8.41208 16.5993V14.1019V10.5994C8.41208 10.0449 7.9507 9.5917 7.3811 9.5917C6.81192 9.5917 6.35052 10.0449 6.35052 10.5994V18.5815C6.35052 18.5863 6.34983 18.5907 6.34913 18.5939C6.34774 18.6236 6.33969 18.6519 6.33345 18.6738C6.33252 18.6771 6.33162 18.6802 6.3308 18.6832L6.28261 18.6699L6.3308 18.6832C6.32959 18.6876 6.3291 18.6914 6.32737 18.7013C6.32595 18.7095 6.32359 18.722 6.31805 18.7347C6.31803 18.7348 6.31801 18.7348 6.31799 18.7349L6.27216 18.7149C6.26747 18.7257 6.26014 18.7353 6.25279 18.7449C6.24861 18.7503 6.24442 18.7558 6.2407 18.7615L14.1448 25.1204ZM14.1448 25.1204L14.1435 25.1208C14.1431 25.1209 14.1423 25.1211 14.1411 25.1215C14.1153 25.1292 13.9025 25.1923 13.5547 25.261L13.5546 25.261C12.1103 25.5485 10.8658 25.5282 9.70041 25.1672C8.53489 24.8061 7.44444 24.103 6.31039 23.0182L6.31074 23.0185L6.27549 23.054M14.1448 25.1204L6.31005 23.0178M4.95349 21.7397L2.00479 18.565M4.95349 21.7397L6.27549 23.054M4.95349 21.7397L4.99012 21.7057L4.98944 21.7049M4.95349 21.7397L4.98874 21.7043L4.98944 21.7049M2.00479 18.565L14.1573 25.1688C14.1569 25.169 14.1561 25.1692 14.1548 25.1696C14.1284 25.1774 13.9141 25.2409 13.5644 25.3101C10.6637 25.8874 8.55131 25.2311 6.27549 23.054M2.00479 18.565C1.77507 18.3182 1.65715 17.9967 1.6723 17.6597M2.00479 18.565L2.08712 16.7843M6.27549 23.054L6.31005 23.0178M6.31005 23.0178L4.98944 21.7049M6.31005 23.0178L2.12054 16.8215M4.98944 21.7049L2.04142 18.531L2.04139 18.531C1.82084 18.2939 1.7077 17.9856 1.72225 17.662L1.6723 17.6597M1.6723 17.6597L1.72225 17.662C1.73681 17.3376 1.87819 17.0394 2.12054 16.8215M1.6723 17.6597C1.68746 17.3219 1.83484 17.0111 2.08712 16.7843M2.12054 16.8215L2.08712 16.7843M2.12054 16.8215L2.08712 16.7843M6.02836 18.955C6.03154 18.9545 6.03549 18.954 6.03999 18.9533C6.05722 18.951 6.08261 18.9475 6.10476 18.9389L6.1049 18.9388C6.13082 18.9287 6.15357 18.9126 6.17043 18.9006C6.17363 18.8983 6.17662 18.8962 6.17938 18.8943L6.15102 18.8531M6.02836 18.955L6.19752 18.8217C6.19586 18.8233 6.19528 18.8256 6.19362 18.8272C6.18594 18.8343 6.1771 18.8388 6.16824 18.8434C6.16239 18.8464 6.15654 18.8494 6.15102 18.8531M6.02836 18.955C6.02403 18.9558 6.0205 18.9567 6.01488 18.9583C6.01234 18.959 6.00938 18.9598 6.00573 18.9608C5.99563 18.9635 5.9815 18.9668 5.96511 18.9668C5.95953 18.9668 5.95456 18.9659 5.95121 18.9651M6.02836 18.955L5.95121 18.9651M6.15102 18.8531L6.17907 18.8945C6.18191 18.8926 6.18448 18.8913 6.18946 18.8887C6.19127 18.8878 6.1934 18.8867 6.19597 18.8853C6.20412 18.881 6.21614 18.8744 6.22755 18.8639L6.22833 18.8632C6.2319 18.8597 6.2344 18.8564 6.23602 18.854C6.2361 18.8539 6.23617 18.8538 6.23625 18.8537L6.03748 18.9031C6.05413 18.9008 6.07065 18.8985 6.08666 18.8923C6.10633 18.8846 6.12313 18.8727 6.14008 18.8608C6.14371 18.8582 6.14735 18.8557 6.15102 18.8531ZM5.87694 18.95L5.87674 18.9499C5.87169 18.9487 5.86742 18.948 5.86176 18.9471C5.85848 18.9465 5.85474 18.9459 5.8501 18.945C5.83942 18.9431 5.82529 18.9401 5.81098 18.9338L5.87694 18.95ZM5.87694 18.95C5.88024 18.9508 5.88432 18.9519 5.88901 18.9531M5.87694 18.95L5.88901 18.9531M5.88901 18.9531C5.90521 18.9575 5.92856 18.9638 5.95121 18.9651M5.88901 18.9531L5.95121 18.9651M10.9547 10.9191L10.9545 10.9192C10.6094 11.1396 9.9727 11.3262 9.18273 11.4492V10.5994C9.18273 9.61788 8.37395 8.82105 7.38105 8.82105C6.38854 8.82105 5.57976 9.61795 5.57976 10.5994V11.5174C4.57138 11.4047 3.74861 11.1865 3.3302 10.9196C3.23909 10.8613 3.20848 10.7204 3.27903 10.602C4.08174 9.25508 4.39604 7.9738 4.50812 7.02258C4.61548 6.11144 4.53751 5.50095 4.52432 5.42417C4.52713 4.18733 5.69348 3.17011 7.14238 3.17011C8.5922 3.17011 9.75846 4.18827 9.7645 5.37425C9.74189 5.52628 9.41687 7.93541 11.006 10.6024C11.0763 10.7206 11.0459 10.8613 10.9547 10.9191ZM5.77874 18.9142C5.78637 18.9199 5.79736 18.9278 5.81085 18.9337L2.12055 16.8215C2.62605 16.3672 3.41421 16.4015 3.87669 16.8994L5.6828 18.8439L5.68347 18.8446C5.6869 18.8482 5.69021 18.8507 5.69256 18.8523L5.69266 18.8523C5.71104 18.8702 5.73341 18.884 5.74976 18.894C5.75366 18.8964 5.75722 18.8986 5.7603 18.9006L5.76049 18.9007C5.76416 18.903 5.76718 18.9053 5.77174 18.9088C5.77372 18.9104 5.776 18.9121 5.77874 18.9142ZM5.68824 18.8479L5.68882 18.8485L5.68824 18.8479ZM6.2323 18.8577C6.23259 18.8574 6.23287 18.8571 6.23315 18.8568C6.23287 18.8571 6.23257 18.8574 6.23226 18.8577L6.2323 18.8577ZM7.14238 1.72059C7.5086 1.72059 7.83315 2.03693 7.96965 2.50403C7.7051 2.44194 7.43076 2.3994 7.14238 2.3994C6.8541 2.3994 6.57982 2.44208 6.31538 2.50432C6.45177 2.03704 6.77607 1.72059 7.14238 1.72059ZM5.95685 18.9654C5.95643 18.9653 5.95599 18.9653 5.95558 18.9653L5.95685 18.9654Z" fill="white" stroke="white" stroke-width="0.1"/>
<path d="M11.745 5.49427C11.9574 5.48446 12.1217 5.30448 12.1118 5.092C12.1118 5.09197 12.1118 5.09194 12.1118 5.09192L12.0619 5.09424C11.98 3.27337 10.3479 2.2722 10.2783 2.23046L11.745 5.49427ZM10.3041 2.18765C10.1205 2.07615 9.88463 2.13668 9.77515 2.31941L9.81804 2.34511L10.3041 2.18765Z" fill="white" stroke="white" stroke-width="0.1"/>
<path d="M2.94287 5.12593L2.94287 5.12594C2.93344 5.33246 2.76314 5.49385 2.55838 5.49385H2.55785L2.94287 5.12593ZM2.94287 5.12593C2.97531 4.41362 3.3292 3.84641 3.67992 3.45439C4.02753 3.06583 4.36873 2.85316 4.37921 2.84665C4.56064 2.73649 4.61891 2.49959 4.50886 2.31797M2.94287 5.12593L2.53984 5.49336C2.3275 5.48353 2.16319 5.30352 2.17308 5.09102L2.22302 5.09334L2.17308 5.09108C2.2149 4.16555 2.65052 3.44958 3.08212 2.96116C3.51366 2.47282 3.94366 2.20902 3.98091 2.18668L4.00663 2.22955L3.98083 2.18672C4.1621 2.07754 4.39876 2.13545 4.50886 2.31797M4.50886 2.31797C4.50887 2.31797 4.50887 2.31798 4.50887 2.31798L4.46606 2.34381L4.50881 2.31789C4.50883 2.31791 4.50885 2.31794 4.50886 2.31797Z" fill="white" stroke="white" stroke-width="0.1"/>
</svg>
