<svg width="28" height="26" viewBox="0 0 28 26" fill="none" xmlns="http://www.w3.org/2000/svg">
<path d="M14.1304 1L13.8687 1.25619L1.30834 13.1805L0.630371 13.821H1.57002H3.4731V24.6274V25H3.85372H24.407H24.7876V24.6274V13.821H26.6907H27.6304L26.9524 13.1805L23.6458 10.048V5.623V5.25036H23.2652H19.459H19.0784V5.623V5.70451L14.392 1.25619L14.1304 1ZM14.1304 2.03639L19.1973 6.84571L19.8396 7.46288V6.57788V5.99563H22.8846V10.1994V10.3624L23.0035 10.4672L25.7511 13.0757H24.407H24.0264V13.4483V24.2547H4.23434V13.4483V13.0757H3.85372H2.50967L14.1304 2.03639ZM9.94359 13.0757V13.4483V16.4294V16.802H10.3242H13.3691H13.7498V16.4294V13.4483V13.0757H13.3691H10.3242H9.94359ZM14.511 13.0757V13.4483V16.4294V16.802H14.8916H17.9365H18.3172V16.4294V13.4483V13.0757H17.9365H14.8916H14.511ZM10.7048 13.821H12.9885V16.0568H10.7048V13.821ZM15.2722 13.821H17.5559V16.0568H15.2722V13.821ZM9.94359 17.5473V17.9199V20.901V21.2737H10.3242H13.3691H13.7498V20.901V17.9199V17.5473H13.3691H10.3242H9.94359ZM14.511 17.5473V17.9199V20.901V21.2737H14.8916H17.9365H18.3172V20.901V17.9199V17.5473H17.9365H14.8916H14.511ZM10.7048 18.2926H12.9885V20.5284H10.7048V18.2926ZM15.2722 18.2926H17.5559V20.5284H15.2722V18.2926Z" fill="white" stroke="white" stroke-width="0.3"/>
</svg>
