<svg width="24" height="26" viewBox="0 0 24 26" fill="none" xmlns="http://www.w3.org/2000/svg">
<path d="M24 0.812482V25.1875C24 25.2942 23.9785 25.3999 23.9369 25.4984C23.8952 25.597 23.8341 25.6866 23.757 25.762C23.68 25.8375 23.5886 25.8973 23.4879 25.9382C23.3873 25.979 23.2794 26 23.1705 26H15.1108C14.8908 26 14.6798 25.9144 14.5242 25.762C14.3686 25.6097 14.2812 25.403 14.2812 25.1875C14.2812 24.972 14.3686 24.7654 14.5242 24.613C14.6798 24.4606 14.8908 24.375 15.1108 24.375H22.341V1.62496H15.1108C15.0018 1.62496 14.894 1.60395 14.7933 1.56312C14.6927 1.52229 14.6012 1.46244 14.5242 1.38699C14.4472 1.31155 14.3861 1.22198 14.3444 1.1234C14.3027 1.02483 14.2812 0.919178 14.2812 0.812482C14.2812 0.705785 14.3027 0.600133 14.3444 0.501558C14.3861 0.402984 14.4472 0.313416 14.5242 0.23797C14.6012 0.162524 14.6927 0.102677 14.7933 0.0618465C14.894 0.0210154 15.0018 -1.5899e-09 15.1108 0H23.1705C23.3905 0 23.6015 0.0856005 23.757 0.23797C23.9126 0.39034 24 0.596998 24 0.812482ZM18.2028 13C18.2027 12.8872 18.1788 12.7757 18.1324 12.6725C18.086 12.5694 18.0181 12.4768 17.9332 12.4006L12.498 7.52781C12.4179 7.4545 12.3237 7.39748 12.2209 7.36004C12.1182 7.32261 12.0088 7.3055 11.8993 7.30971C11.7897 7.31392 11.6821 7.33936 11.5826 7.38456C11.4832 7.42977 11.3938 7.49384 11.3198 7.57307C11.2458 7.6523 11.1885 7.74512 11.1514 7.84616C11.1142 7.9472 11.0979 8.05446 11.1033 8.16172C11.1087 8.26899 11.1358 8.37414 11.1829 8.47109C11.2301 8.56804 11.2964 8.65487 11.3781 8.72656L15.2383 12.1875H0.829514C0.609513 12.1875 0.398523 12.2731 0.242959 12.4255C0.0873949 12.5779 0 12.7845 0 13C0 13.2155 0.0873949 13.4221 0.242959 13.5745C0.398523 13.7269 0.609513 13.8125 0.829514 13.8125H15.2383L11.3778 17.2734C11.2155 17.4189 11.1189 17.6216 11.1091 17.8369C11.0994 18.0522 11.1774 18.2625 11.326 18.4214C11.4745 18.5804 11.6815 18.675 11.9013 18.6846C12.1211 18.6941 12.3357 18.6177 12.498 18.4722L17.9332 13.5994C18.0181 13.5232 18.086 13.4306 18.1324 13.3275C18.1788 13.2243 18.2027 13.1128 18.2028 13Z" fill="white"/>
</svg>
