<svg width="29" height="25" viewBox="0 0 29 25" fill="none" xmlns="http://www.w3.org/2000/svg">
<path d="M26.2796 10.6039C26.2283 10.6039 26.1513 10.6039 26.1 10.6039C25.7407 9.42029 24.7142 8.50242 23.4566 8.21256C23.4566 8.18841 23.4566 8.16425 23.4566 8.1401C22.969 3.6715 18.8115 0.0241546 14.192 0C14.192 0 14.192 0 14.1664 0C14.1407 0 14.1407 0 14.115 0C14.0894 0 14.0381 0 14.0124 0C13.9867 0 13.9611 0 13.9097 0C11.1381 0.0724638 8.4177 1.42512 6.6469 3.6715L7.46814 4.25121C8.7 2.70531 10.4195 1.61836 12.2673 1.18358C11.0097 2.19807 9.95752 3.33333 9.18761 4.61353L10.0858 5.09662C10.8044 3.91304 11.7796 2.85024 12.9602 1.90821C11.1894 7.343 11.0867 12.8744 12.6009 18.3816H12.0363C9.36726 15.3865 8.21239 12.0048 8.7 8.79227H11.0611L11.0354 8.28502C10.9584 6.40097 9.31593 4.90338 7.31416 4.90338C7.23717 4.90338 7.13451 4.90338 7.05752 4.92754C7.03186 4.92754 7.03186 4.92754 7.0062 4.92754C6.41593 4.42029 5.62035 4.10628 4.79912 4.10628C3.41327 4.10628 2.20708 4.90338 1.74513 6.11111C0.744248 6.28019 0 7.10145 0 8.09179C0 8.18841 9.75169e-08 8.26087 0.0256638 8.38164L0.0769914 8.79227H4.72212C4.51681 12.3188 6.59558 16.1594 10.4195 19.1787C10.4195 19.1787 10.4195 19.2029 10.4451 19.2029L12.3699 20.8937L12.6522 22.029H12.2159V25H16.0912V22.029H15.5779L15.8345 20.9662L17.7336 19.2995C19.9407 17.5362 21.5575 15.628 22.5327 13.6232H28.4867L28.9743 13.6473L29 13.1159C28.9487 11.715 27.7681 10.6039 26.2796 10.6039ZM22.4044 8.09179C21.6858 8.11594 21.0442 8.33333 20.4796 8.6715C20.0434 5.7971 18.4779 3.18841 15.9115 1.13527C19.2478 1.93237 21.9938 4.7343 22.4044 8.09179ZM19.0168 13.6232C18.4522 15.2657 17.5027 16.8357 16.1938 18.3575H15.5522C17.0664 12.8261 16.9381 7.27053 15.1673 1.81159C17.8106 3.88889 19.3504 6.5942 19.5814 9.56522C19.2221 10.0483 18.9655 10.6039 18.9142 11.2077C18.0159 11.4734 17.323 12.1981 17.1947 13.0918L17.092 13.6232H19.0168ZM14.0637 1.73913C15.9372 7.22222 16.0655 12.8019 14.5 18.3575H13.6531C12.0619 12.8019 12.1903 7.22222 14.0637 1.73913ZM2.13009 7.00483H2.54071L2.64336 6.64251C2.9 5.70048 3.77257 5.04831 4.79912 5.04831C5.10708 5.04831 5.41504 5.12077 5.69735 5.21739C5.36372 5.36232 5.03009 5.57971 4.74779 5.82126L5.44071 6.52174C5.8 6.18358 6.26195 5.96618 6.74956 5.86957L6.85221 5.84541C6.9292 5.84541 7.0062 5.82126 7.05752 5.82126C7.13451 5.82126 7.18584 5.82126 7.26283 5.82126C7.33982 5.82126 7.44248 5.82126 7.51947 5.82126C7.54513 5.82126 7.5708 5.82126 7.5708 5.82126C7.62212 5.82126 7.69912 5.84541 7.75044 5.84541C7.77611 5.84541 7.80177 5.84541 7.82743 5.86957C7.87876 5.86957 7.93009 5.89372 7.98142 5.91787C8.00708 5.91787 8.03274 5.94203 8.05841 5.94203C8.10973 5.96618 8.16106 5.96618 8.21239 5.99034C8.23805 5.99034 8.26372 6.01449 8.28938 6.01449C8.34071 6.03865 8.39204 6.0628 8.44336 6.08696C8.46903 6.08696 8.49469 6.11111 8.52035 6.11111C8.57168 6.13527 8.62301 6.15942 8.67434 6.20773C8.7 6.20773 8.7 6.23188 8.72566 6.23188C8.85398 6.30435 8.9823 6.40097 9.11062 6.52174C9.13628 6.54589 9.13628 6.54589 9.16195 6.57005C9.21327 6.61836 9.23894 6.64251 9.29027 6.69082C9.31593 6.71498 9.31593 6.73913 9.34159 6.73913C9.36726 6.78744 9.41858 6.81159 9.44425 6.8599C9.46991 6.88406 9.46991 6.90821 9.49558 6.93237C9.52124 6.98068 9.5469 7.00483 9.57257 7.05314C9.59823 7.0773 9.59823 7.10145 9.62389 7.1256C9.64956 7.17391 9.67522 7.22222 9.70088 7.27053C9.70088 7.29469 9.72655 7.31884 9.72655 7.343C9.75221 7.3913 9.77788 7.43961 9.80354 7.48792C9.80354 7.51208 9.8292 7.53623 9.8292 7.53623C9.85487 7.6087 9.88053 7.68116 9.90619 7.75362H1.05221C1.18053 7.343 1.61681 7.00483 2.13009 7.00483ZM5.74867 8.76812H7.64779C7.21151 11.7633 8.10973 14.8551 10.1885 17.7053C7.16018 15 5.54336 11.7633 5.74867 8.76812ZM15.0133 23.9855H13.1912V22.9469H15.0133V23.9855ZM13.6788 22.0048L13.4478 21.1111H14.6796L14.4487 22.0048H13.6788ZM15.2186 20.1449H13.0115L12.0876 19.3237H16.1425L15.2186 20.1449ZM17.9389 17.7778C18.9142 16.4493 19.6327 15.0483 20.0947 13.6232H21.3522C20.5566 15.0725 19.4274 16.4493 17.9389 17.7778ZM18.4009 12.657C18.6319 12.343 18.9912 12.1014 19.4274 12.0531L19.8894 11.9807V11.5459C19.8894 10.1691 21.0956 9.03382 22.5584 9.03382C23.8929 9.03382 25.0221 9.95169 25.2018 11.1836L25.2788 11.7391L25.8434 11.5942C25.9973 11.5459 26.1513 11.5459 26.2796 11.5459C27.0239 11.5459 27.6398 12.0048 27.8451 12.6329H18.4009V12.657Z" fill="white"/>
</svg>
